PathFileType	4	(X/Y/Z)	/Users/itak/Documents/Research/Walk-IL/dataset/trc/00098_00007.trc
DataRate	CameraRate	NumFrames	NumMarkers	Units	OrigDataRate	OrigDataStartFrame	OrigNumFrames
100.000000	100.000000	4	53	mm	100.000000	208	556
Frame#	Time	RPSI			LPSI			L3			STRN			T10			C7			CLAV			RBAK			LBAK			LSHO			LUPA			LAEL			LAOL			LWTS			LWPS			LFRA			LIFD			LHPS			LHTS			RSHO			RUPA			RAEL			RAOL			RWTS			RWPS			RFRA			RIFD			RHTS			RHPS			RBHD			LFHD			RFHD			LBHD			LHIP			RHIP			RASI			LASI			LKNE			LTHI			LANK			LTIP			LTOE			LMT1			LMT5			LHEE			RKNE			RTHI			RANK			RTIP			RTOE			RMT1			RMT5			RHEE			
		X1	Y1	Z1	X2	Y2	Z2	X3	Y3	Z3	X4	Y4	Z4	X5	Y5	Z5	X6	Y6	Z6	X7	Y7	Z7	X8	Y8	Z8	X9	Y9	Z9	X10	Y10	Z10	X11	Y11	Z11	X12	Y12	Z12	X13	Y13	Z13	X14	Y14	Z14	X15	Y15	Z15	X16	Y16	Z16	X17	Y17	Z17	X18	Y18	Z18	X19	Y19	Z19	X20	Y20	Z20	X21	Y21	Z21	X22	Y22	Z22	X23	Y23	Z23	X24	Y24	Z24	X25	Y25	Z25	X26	Y26	Z26	X27	Y27	Z27	X28	Y28	Z28	X29	Y29	Z29	X30	Y30	Z30	X31	Y31	Z31	X32	Y32	Z32	X33	Y33	Z33	X34	Y34	Z34	X35	Y35	Z35	X36	Y36	Z36	X37	Y37	Z37	X38	Y38	Z38	X39	Y39	Z39	X40	Y40	Z40	X41	Y41	Z41	X42	Y42	Z42	X43	Y43	Z43	X44	Y44	Z44	X45	Y45	Z45	X46	Y46	Z46	X47	Y47	Z47	X48	Y48	Z48	X49	Y49	Z49	X50	Y50	Z50	X51	Y51	Z51	X52	Y52	Z52	X53	Y53	Z53	

209	2.08	-1590.814453125	1104.940673828125	-254.5918579101562	-1583.181518554688	1118.140747070312	-388.9760131835938	-1593.846069335938	1151.643310546875	-320.999267578125	-1353.465698242188	1333.031127929688	-307.3653259277344	-1612.219482421875	1304.539306640625	-312.0651550292969	-1547.53125	1592.885620117188	-329.5622253417969	-1375.565063476562	1470.896362304688	-316.5908813476562	-1622.349853515625	1417.250610351562	-237.3522796630859	-1555.310424804688	1572.631591796875	-431.2568054199219	-1469.729858398438	1548.584106445312	-498.76171875	-1503.674072265625	1418.75146484375	-566.7296752929688	-1521.050537109375	1200.771362304688	-589.2008666992188	-1583.049682617188	1196.53466796875	-527.2420043945312	-1468.719116210938	927.219970703125	-559.9923095703125	-1555.596313476562	919.367431640625	-580.7410278320312	-1525.877319335938	1084.261962890625	-596.5252685546875	-1497.067138671875	735.5811157226562	-538.8434448242188	-1542.649780273438	839.8406372070312	-585.1083984375	-1473.256103515625	835.9688110351562	-573.1593017578125	-1495.34765625	1574.688354492188	-147.1773986816406	-1517.810546875	1505.303100585938	-80.59839630126953	-1546.397827148438	1212.563232421875	-45.98956680297852	-1559.313354492188	1208.504760742188	-142.0039520263672	-1423.804809570312	958.57421875	-58.98984909057617	-1497.351806640625	949.42724609375	-21.27289772033691	-1528.132568359375	1138.515869140625	-29.13899803161621	-1417.302001953125	761.85400390625	-66.89384460449219	-1403.3203125	848.0436401367188	-49.71337890625	-1469.7939453125	847.86474609375	-13.70554447174072	-1506.906494140625	1751.58447265625	-253.46630859375	-1350.84619140625	1821.194580078125	-393.5587158203125	-1346.801513671875	1829.298828125	-263.85400390625	-1518.26513671875	1746.86767578125	-388.4566955566406	-1476.633422851562	1040.353637695312	-500.8617248535156	-1485.994750976562	994.4942626953125	-134.7061004638672	-1389.204956054688	1068.252075195312	-175.0048217773438	-1379.027709960938	1091.0068359375	-440.0519104003906	-1331.151245117188	548.2978515625	-455.2684631347656	-1392.201904296875	682.8733520507812	-492.2775268554688	-1329.915649414062	34.07764434814453	-447.6672058105469	-1366.917724609375	285.6821594238281	-483.5634460449219	-1110.213134765625	46.79921340942383	-371.6445617675781	-1189.712646484375	43.46273422241211	-343.8701171875	-1204.672973632812	36.44634246826172	-459.5687255859375	-1403.343139648438	35.16483306884766	-390.9404602050781	-1547.263061523438	504.9953918457031	-189.0187835693359	-1481.9169921875	781.1471557617188	-155.9653015136719	-1884.439208984375	92.332275390625	-205.8796844482422	-1633.657958984375	391.527099609375	-177.6163787841797	-1667.64453125	36.13579177856445	-252.6563110351562	-1722.919555664062	34.1288948059082	-295.4622497558594	-1763.291015625	40.91173934936523	-182.7229766845703	-1933.252075195312	126.3690338134766	-254.5673217773438	
210	2.09	-1581.06787109375	1106.43798828125	-256.1789855957031	-1573.353271484375	1119.775512695312	-390.6063232421875	-1584.155151367188	1153.21435546875	-322.6504211425781	-1344.256958007812	1335.356201171875	-308.9260864257812	-1602.81982421875	1305.9150390625	-313.5172119140625	-1539.300415039062	1594.4619140625	-331.1007385253906	-1366.8369140625	1473.159423828125	-318.1563415527344	-1613.193115234375	1418.631225585938	-238.8111572265625	-1547.065063476562	1574.217895507812	-432.7319030761719	-1461.429931640625	1550.672973632812	-500.261474609375	-1494.80615234375	1420.797729492188	-568.4017333984375	-1510.941284179688	1202.666748046875	-590.7859497070312	-1573.037353515625	1198.14599609375	-528.9274291992188	-1457.255981445312	929.375244140625	-561.4173583984375	-1544.003784179688	921.066162109375	-582.31396484375	-1515.168823242188	1086.123901367188	-598.1090087890625	-1484.740600585938	737.5767822265625	-540.1475219726562	-1530.703002929688	841.595947265625	-586.6073608398438	-1461.281616210938	838.0641479492188	-574.5134887695312	-1486.913330078125	1576.690185546875	-148.8151550292969	-1509.16064453125	1507.384399414062	-82.15509796142578	-1537.60009765625	1214.707885742188	-47.55351257324219	-1550.369506835938	1210.634765625	-143.6017761230469	-1414.200439453125	961.0833129882812	-60.24169921875	-1487.735229492188	951.6568603515625	-22.75961112976074	-1519.172485351562	1140.701293945312	-30.65153884887695	-1406.807861328125	764.416259765625	-68.5107421875	-1393.238525390625	850.6486206054688	-51.12432479858398	-1459.871826171875	850.1334228515625	-15.22370624542236	-1498.53369140625	1753.858520507812	-255.0894470214844	-1342.143432617188	1823.013671875	-395.0119323730469	-1338.218627929688	1831.096313476562	-265.3031311035156	-1509.802490234375	1749.19287109375	-390.1421813964844	-1466.617065429688	1042.169189453125	-502.5000610351562	-1475.926391601562	996.1763916015625	-136.27001953125	-1379.470703125	1070.337646484375	-176.8543548583984	-1369.275268554688	1093.06884765625	-441.8376770019531	-1325.219482421875	548.71337890625	-455.8150329589844	-1384.772827148438	683.92724609375	-492.95751953125	-1329.8427734375	33.97148513793945	-447.9016418457031	-1363.469360351562	286.1448059082031	-484.7376403808594	-1109.89990234375	45.77685546875	-371.1929016113281	-1189.770751953125	43.36203002929688	-343.7772216796875	-1204.489013671875	36.31965637207031	-459.6591186523438	-1403.399047851562	35.23759841918945	-391.406494140625	-1531.871948242188	505.404052734375	-189.447265625	-1469.773803710938	782.5176391601562	-157.4963226318359	-1879.416870117188	100.022834777832	-205.0977630615234	-1620.839599609375	393.6936950683594	-177.6517028808594	-1667.875244140625	35.89635467529297	-252.4716491699219	-1722.00927734375	34.93205642700195	-295.5877075195312	-1761.682495117188	41.90880584716797	-182.75146484375	-1926.053588867188	136.8626708984375	-253.8925323486328	
211	2.1	-1571.39013671875	1107.874267578125	-257.8398132324219	-1563.504760742188	1121.297119140625	-392.3032531738281	-1574.474731445312	1154.686157226562	-324.3995666503906	-1335.019287109375	1337.590209960938	-310.4779968261719	-1593.35986328125	1307.1796875	-315.0792541503906	-1531.054809570312	1595.932861328125	-332.6602478027344	-1358.093139648438	1475.331665039062	-319.7002563476562	-1604.031372070312	1419.90283203125	-240.3540344238281	-1538.774291992188	1575.714477539062	-434.2277221679688	-1453.062377929688	1552.714477539062	-501.7643432617188	-1485.879028320312	1422.809692382812	-570.1131591796875	-1500.805297851562	1204.538818359375	-592.423583984375	-1562.996948242188	1199.7177734375	-530.65966796875	-1445.460327148438	931.5950927734375	-562.8375244140625	-1532.079223632812	922.7093505859375	-583.873046875	-1504.337890625	1087.955078125	-599.7246704101562	-1471.819946289062	739.6127319335938	-541.4156494140625	-1518.313110351562	843.31494140625	-588.0759887695312	-1448.877563476562	840.2261962890625	-575.8523559570312	-1478.527221679688	1578.5751953125	-150.4680480957031	-1500.566040039062	1509.3525390625	-83.74636840820312	-1528.810180664062	1216.753295898438	-49.09518432617188	-1541.480590820312	1212.658325195312	-145.1745910644531	-1404.580932617188	963.5084228515625	-61.52948379516602	-1478.07861328125	953.7932739257812	-24.22758293151855	-1510.202758789062	1142.789306640625	-32.14597702026367	-1396.3056640625	766.89892578125	-70.24929046630859	-1383.142333984375	853.166015625	-52.64009857177734	-1449.862426757812	852.2958374023438	-16.80039405822754	-1490.15673828125	1756.063720703125	-256.6724548339844	-1333.41357421875	1824.718383789062	-396.424072265625	-1329.605102539062	1832.777954101562	-266.7226257324219	-1501.337280273438	1751.44482421875	-391.7914428710938	-1457.02685546875	1043.5927734375	-503.966064453125	-1465.951171875	997.8202514648438	-137.8377685546875	-1369.876220703125	1072.369873046875	-178.698974609375	-1359.487426757812	1094.953002929688	-443.6067810058594	-1319.5	548.9327392578125	-456.3179626464844	-1377.507690429688	684.7709350585938	-493.7671203613281	-1329.724731445312	33.88172149658203	-448.1460876464844	-1360.0908203125	286.501953125	-485.8988647460938	-1109.560546875	44.82527923583984	-370.67431640625	-1189.789306640625	43.27540588378906	-343.6545715332031	-1204.291381835938	36.22875213623047	-459.7363891601562	-1403.410400390625	35.272705078125	-391.8543090820312	-1515.549682617188	505.6948547363281	-189.7362518310547	-1457.433715820312	783.838134765625	-158.9157409667969	-1873.509399414062	108.2014923095703	-204.2007751464844	-1606.875610351562	395.7178955078125	-177.5804290771484	-1668.088745117188	35.65753173828125	-252.2487335205078	-1720.958984375	35.86721420288086	-295.7395629882812	-1759.793090820312	43.15501403808594	-182.7017669677734	-1917.680786132812	147.8223419189453	-253.0513000488281	
212	2.11	-1561.833618164062	1109.173583984375	-259.5610656738281	-1553.670654296875	1122.659545898438	-394.0466003417969	-1564.83251953125	1156.003784179688	-326.2267150878906	-1325.773193359375	1339.654663085938	-311.9955749511719	-1583.895874023438	1308.29150390625	-316.7704467773438	-1522.785888671875	1597.250244140625	-334.2489013671875	-1349.333251953125	1477.336059570312	-321.2081298828125	-1594.90234375	1421.01318359375	-242.0025787353516	-1530.413330078125	1577.067504882812	-435.7595520019531	-1444.594604492188	1554.6318359375	-503.2705688476562	-1476.864135742188	1424.712280273438	-571.8621215820312	-1490.644287109375	1206.313110351562	-594.1255493164062	-1552.942504882812	1201.180053710938	-532.4642944335938	-1433.344116210938	933.8131713867188	-564.248046875	-1519.83837890625	924.23095703125	-585.4256591796875	-1493.387329101562	1089.681518554688	-601.380615234375	-1458.314208984375	741.6303100585938	-542.6488037109375	-1505.480346679688	844.9327392578125	-589.5164794921875	-1436.050659179688	842.3967895507812	-577.17041015625	-1470.212280273438	1580.268676757812	-152.1294250488281	-1492.063842773438	1511.122802734375	-85.37389373779297	-1520.053466796875	1218.608520507812	-50.6153678894043	-1532.65234375	1214.476806640625	-146.7232513427734	-1394.950073242188	965.776123046875	-62.82723617553711	-1468.395751953125	955.7545166015625	-25.6613712310791	-1501.244018554688	1144.690795898438	-33.61857986450195	-1385.776000976562	769.2276000976562	-72.03977203369141	-1373.026489257812	855.5228881835938	-54.20095443725586	-1439.772094726562	854.2827758789062	-18.39537620544434	-1481.784423828125	1758.123168945312	-258.2071533203125	-1324.676147460938	1826.252319335938	-397.7847290039062	-1320.976196289062	1834.28271484375	-268.1006164550781	-1492.8720703125	1753.547607421875	-393.3900146484375	-1447.767578125	1044.660522460938	-505.2903137207031	-1456.104736328125	999.3350219726562	-139.4094543457031	-1360.46728515625	1074.263427734375	-180.5111694335938	-1349.682006835938	1096.609252929688	-445.32861328125	-1314.006958007812	548.9393310546875	-456.8066101074219	-1370.415649414062	685.3910522460938	-494.6889343261719	-1329.569946289062	33.82298278808594	-448.3734741210938	-1356.82763671875	286.7383422851562	-486.9725646972656	-1109.189208984375	43.92692947387695	-370.1115112304688	-1189.747436523438	43.16775512695312	-343.496337890625	-1204.088989257812	36.15967178344727	-459.7868347167969	-1403.37646484375	35.29106140136719	-392.2380676269531	-1498.34423828125	505.8373107910156	-189.9305877685547	-1444.936401367188	785.0466918945312	-160.2087097167969	-1866.62255859375	116.8238906860352	-203.1829528808594	-1591.74755859375	397.5224304199219	-177.4471130371094	-1668.067626953125	35.43967056274414	-251.9519195556641	-1719.589477539062	37.04103088378906	-295.86767578125	-1757.471069335938	44.76481628417969	-182.5493011474609	-1908.11328125	159.142333984375	-251.9960174560547	
